<svg xmlns="http://www.w3.org/2000/svg" viewBox="0 0 1200 630" role="img" aria-label="RelayOps Open Graph image placeholder">
  <defs>
    <linearGradient id="relayops-surface" x1="140" x2="1080" y1="80" y2="580" gradientUnits="userSpaceOnUse">
      <stop stop-color="#ffffff" />
      <stop offset="1" stop-color="#f0f9ff" />
    </linearGradient>
    <radialGradient id="relayops-glow" cx="0" cy="0" r="1" gradientTransform="translate(920 120) rotate(122.195) scale(424.498 519.392)" gradientUnits="userSpaceOnUse">
      <stop stop-color="#0ea5e9" stop-opacity=".16" />
      <stop offset="1" stop-color="#0ea5e9" stop-opacity="0" />
    </radialGradient>
  </defs>
  <rect width="1200" height="630" fill="#f8fafc" />
  <rect width="1200" height="630" fill="url(#relayops-glow)" />
  <rect x="78" y="74" width="1044" height="482" rx="36" fill="url(#relayops-surface)" stroke="#d9e5f2" stroke-width="2" />
  <rect x="128" y="126" width="88" height="88" rx="28" fill="#e0f2fe" />
  <rect x="145" y="143" width="54" height="54" rx="20" fill="#0ea5e9" />
  <path
    d="M296 164h122c66 0 108 40 108 98 0 62-43 104-112 104h-40v86h-78V164Zm115 138c22 0 37-14 37-36 0-22-15-34-37-34h-37v70h37Z"
    fill="#0f172a"
  />
  <text x="128" y="306" fill="#0f172a" font-family="Plus Jakarta Sans, Arial, sans-serif" font-size="68" font-weight="700">
    RelayOps
  </text>
  <text x="128" y="362" fill="#475569" font-family="Plus Jakarta Sans, Arial, sans-serif" font-size="28">
    Workflow operations platform
  </text>
  <text x="128" y="440" fill="#0f172a" font-family="Sora, Arial, sans-serif" font-size="52" font-weight="600">
    Run recurring work without the follow-up.
  </text>
  <text x="128" y="492" fill="#475569" font-family="Plus Jakarta Sans, Arial, sans-serif" font-size="26">
    Automate recurring workflows, reduce coordination overhead, and keep teams aligned.
  </text>
  <rect x="777" y="177" width="256" height="222" rx="26" fill="#ffffff" stroke="#d9e5f2" />
  <rect x="812" y="212" width="186" height="14" rx="7" fill="#e2e8f0" />
  <rect x="812" y="246" width="142" height="14" rx="7" fill="#bae6fd" />
  <rect x="812" y="288" width="186" height="66" rx="18" fill="#f8fafc" stroke="#d9e5f2" />
  <rect x="832" y="309" width="92" height="12" rx="6" fill="#0f172a" fill-opacity=".88" />
  <rect x="832" y="332" width="132" height="10" rx="5" fill="#94a3b8" />
  <rect x="975" y="309" width="32" height="32" rx="16" fill="#fef3c7" />
  <rect x="734" y="429" width="342" height="68" rx="24" fill="#ffffff" stroke="#d9e5f2" />
  <circle cx="780" cy="463" r="16" fill="#0ea5e9" fill-opacity=".14" />
  <rect x="812" y="450" width="144" height="12" rx="6" fill="#0f172a" fill-opacity=".88" />
  <rect x="812" y="472" width="212" height="10" rx="5" fill="#94a3b8" />
</svg>
